<svg width="20" height="14" viewBox="0 0 20 14" fill="none" xmlns="http://www.w3.org/2000/svg">
<path d="M4.16641 12.8337C3.40031 12.0676 2.79261 11.1581 2.378 10.1572C1.9634 9.15622 1.75 8.08342 1.75 7C1.75 5.91659 1.9634 4.84378 2.378 3.84284C2.79261 2.8419 3.40031 1.93242 4.16641 1.16634M15.8337 1.16634C16.5998 1.93242 17.2075 2.8419 17.6221 3.84284C18.0367 4.84378 18.2501 5.91659 18.2501 7C18.2501 8.08342 18.0367 9.15622 17.6221 10.1572C17.2075 11.1581 16.5998 12.0676 15.8337 12.8337M6.75874 10.2404C5.8995 9.38092 5.4168 8.21534 5.4168 7C5.4168 5.78467 5.8995 4.61909 6.75874 3.75959M13.2414 3.75959C14.1006 4.61909 14.5833 5.78467 14.5833 7C14.5833 8.21534 14.1006 9.38092 13.2414 10.2404M10.9167 7C10.9167 7.24312 10.8202 7.47628 10.6483 7.64818C10.4763 7.82009 10.2432 7.91667 10.0001 7.91667C9.75696 7.91667 9.5238 7.82009 9.35189 7.64818C9.17998 7.47628 9.08341 7.24312 9.08341 7C9.08341 6.75689 9.17998 6.52373 9.35189 6.35182C9.5238 6.17991 9.75696 6.08334 10.0001 6.08334C10.2432 6.08334 10.4763 6.17991 10.6483 6.35182C10.8202 6.52373 10.9167 6.75689 10.9167 7Z" stroke="#006AFF" stroke-width="2" stroke-linecap="round" stroke-linejoin="round"/>
</svg>
